<svg xmlns="http://www.w3.org/2000/svg" width="115.725" height="19.75" viewBox="0 0 115.725 19.75">
  <path id="パス_20" data-name="パス 20" d="M6.525-14.225A9.027,9.027,0,0,1,6.8-17.5c.275-.5.8-.5,1.75-.6.15-.025.225-.05.225-.325,0-.3-.075-.35-.275-.35-1.075.025-2.4.1-3.55.1s-2.475-.075-3.55-.1c-.2,0-.25.05-.25.35,0,.275.05.3.25.325,1,.1,1.55.125,1.8.6.275.55.3.875.3,3.275V-5.15c0,1.675,0,2.775-.325,3.325-.3.525-.775.55-1.725.65-.175.025-.225.075-.225.325s.05.3.225.3c2.225-.05,4.6-.075,6.8-.075,2.075,0,4.375.025,6.6.075a34.46,34.46,0,0,0,1.3-4.425c.025-.15.025-.25-.25-.35-.275-.075-.325-.025-.425.15a9.321,9.321,0,0,1-1.95,2.5A6.5,6.5,0,0,1,9.25-1.4c-1.075,0-1.975-.05-2.4-.725A7.725,7.725,0,0,1,6.525-5.15ZM22.675-9.2c.625.05,1.05.05,1.55.05.275,0,.575,0,.825-.025,1.25,2.25,2.375,4.35,3.6,6.6a13.563,13.563,0,0,1,.9,1.95c.875-.025,1.6-.025,2.3-.025.8,0,1.6.05,2.65.1.15,0,.2-.05.2-.325s-.05-.3-.2-.325a3.312,3.312,0,0,1-1.525-.375A5.98,5.98,0,0,1,31.5-3.45c-1.325-2.15-2.525-4.25-3.6-6.2,2.9-.75,4.175-2.6,4.175-4.475,0-2.625-1.875-4.675-6.825-4.675-1.575,0-3.175.1-4.125.1-1.1,0-2.4-.025-3.575-.075-.175,0-.225.025-.225.325,0,.275.05.325.225.35,1.025.1,1.775.125,2.025.625.25.55.25.85.25,3.25v9.05a8.815,8.815,0,0,1-.3,3.325c-.25.525-.8.55-1.725.65-.2.025-.25.075-.25.35,0,.225.05.3.25.3,1.075-.05,2.35-.1,3.45-.1,1.15,0,2.425.05,3.575.1.225,0,.25-.075.25-.3,0-.275-.025-.325-.2-.35-1.05-.1-1.6-.1-1.925-.65-.25-.475-.275-.825-.275-3.325Zm0-5.025a8.6,8.6,0,0,1,.275-3.25c.35-.5,1.15-.475,1.8-.475,2.875,0,4.15,1.45,4.15,3.975,0,2.25-1.225,4.025-4.6,4.025a12.573,12.573,0,0,1-1.625-.1ZM50.95-18.5a7.015,7.015,0,0,1-2.825-.2,12.507,12.507,0,0,0-3.225-.475c-5.75,0-9.875,3.925-9.875,9.525,0,5.675,3.825,9.525,9.8,9.525C47.45-.125,49-.8,50.25-.8a10.311,10.311,0,0,1,1.55.1c.175,0,.275-.075.275-.175a29.265,29.265,0,0,1-.15-3.7A9.458,9.458,0,0,1,52.2-7.6c.3-.525.625-.525,1.55-.625.175-.025.2-.075.2-.325,0-.275-.025-.3-.2-.3-1.15.05-2.075.1-3.225.1-1.1,0-2.35-.05-3.5-.1-.175,0-.225.025-.225.3s.05.3.225.325c1.05.1,1.65.125,1.9.625.3.575.275.85.275,3.375A11.357,11.357,0,0,1,49.075-2.5,5.532,5.532,0,0,1,45.25-1.025c-4.075,0-6.85-3.625-6.85-8.675,0-4.95,2.85-8.625,6.5-8.625a5.561,5.561,0,0,1,3.6,1.25,8.468,8.468,0,0,1,2.2,3.025c.1.2.175.275.425.2.225-.075.25-.15.225-.35C51.175-15.5,51-17.2,50.95-18.5ZM64.325-8.6c.025-1.95-.025-3.725-3.7-3.725-3.075,0-5,1.825-5,3,0,.5.2.8.975.8,1.3,0,1.925-.525,1.925-1.2a1.731,1.731,0,0,1,.45-1.4,1.727,1.727,0,0,1,1.3-.5c1.025,0,1.5.775,1.5,2.65v.7A1.35,1.35,0,0,1,61.2-7.3a5.23,5.23,0,0,1-1.95.9,8.03,8.03,0,0,0-3.2,1.375A2.894,2.894,0,0,0,55.2-2.8c0,1.125.75,2.65,3.2,2.65a4.373,4.373,0,0,0,3.5-1.475,2.124,2.124,0,0,0,2.125,1.35A3.54,3.54,0,0,0,66.15-.85c.175-.125.175-.2.075-.375S66-1.4,65.9-1.35a1.251,1.251,0,0,1-.725.175c-.575,0-.925-.6-.9-2.2ZM61.75-3.3a2.172,2.172,0,0,1-2.225,2.175,1.869,1.869,0,0,1-1.575-2.05A2.53,2.53,0,0,1,59.775-5.8c1.4-.525,1.75-.725,2-1.1Zm6.1-7.25a.714.714,0,0,1,.85.55,7.294,7.294,0,0,1,.2,2.05v3.7a6.859,6.859,0,0,1-.25,2.65c-.175.4-.575.4-1.325.475-.15.025-.2.05-.2.325,0,.225.05.25.2.25C68.25-.575,69.4-.625,70.25-.625c.825,0,1.875.05,2.825.075.125,0,.175-.025.175-.25,0-.275-.025-.325-.175-.325C72.2-1.2,71.8-1.2,71.6-1.6a8.48,8.48,0,0,1-.175-2.65V-7.3a3.229,3.229,0,0,1,.7-2.2c.5-.625.85-.75,1.15-.75.5,0,.85.55,1.4.55.6,0,1.35-.875,1.35-1.875,0-.45-.525-.775-1.375-.775-1.425,0-2.475,1.4-3.225,2.75,0-1,.05-1.75.075-2.45,0-.125-.15-.225-.325-.225a35.385,35.385,0,0,1-4,1.125c-.275.05-.325.1-.3.375s.075.3.35.275Zm17.95-.525a4,4,0,0,0-2.95-1.275c-3.525,0-5.725,2.6-5.725,6.225,0,3.525,1.975,6,5.4,6a3.8,3.8,0,0,0,3.275-2c0,.625-.025,1.1-.05,1.7,0,.225.075.3.25.3A37.838,37.838,0,0,1,89.9-.55c.175-.025.225-.075.225-.325,0-.225-.05-.275-.225-.275l-.575-.025c-.325-.025-.6-.025-.775-.4a7.782,7.782,0,0,1-.175-2.6V-13.55c0-2.425.05-4.35.15-6.075,0-.125-.175-.225-.3-.25a38.758,38.758,0,0,1-4.1,1.125c-.25.05-.325.075-.3.375s.075.3.375.275l.6-.05c.425-.025.8.1.9.5a10.368,10.368,0,0,1,.1,2.15Zm0,6.4a2.942,2.942,0,0,1-.5,2.025,2.671,2.671,0,0,1-2.15,1.325c-1.825,0-3.075-1.75-3.075-4.9s1.15-5.3,3.1-5.3a2.578,2.578,0,0,1,2.15,1.425A3.759,3.759,0,0,1,85.8-7.9Zm8.4-2.5c2.225-.05,4.75-.025,7.275.05.15,0,.25.025.375-.125a.539.539,0,0,0,.125-.425,4.937,4.937,0,0,0-4.875-4.65A5.893,5.893,0,0,0,91.3-6.15a5.653,5.653,0,0,0,5.775,6A4.958,4.958,0,0,0,101.7-2.625a.775.775,0,0,0,.125-.275c0-.075-.1-.175-.2-.25a.449.449,0,0,0-.225-.1.3.3,0,0,0-.25.125,3.834,3.834,0,0,1-3.475,1.8c-1.55,0-3.575-1.65-3.575-4.95A3.724,3.724,0,0,1,94.2-7.175Zm.125-.9c.375-2.05,1.425-3.5,2.775-3.5,1.45,0,2.05,1.625,2.125,3.025,0,.225-.025.375-.225.4A41.679,41.679,0,0,1,94.325-8.075Zm9.875-2.5a.653.653,0,0,1,.775.525,6.78,6.78,0,0,1,.175,2.1v3.7a8.061,8.061,0,0,1-.175,2.65c-.2.4-.6.4-1.325.475-.125.025-.175.05-.175.3,0,.225.025.275.175.275.95-.025,1.975-.075,2.875-.075.825,0,1.8.05,2.675.075.175,0,.225-.025.225-.275s-.05-.275-.225-.3c-.775-.075-1.175-.075-1.375-.475a8.934,8.934,0,0,1-.15-2.65V-7.625a3.264,3.264,0,0,1,.525-2,2.786,2.786,0,0,1,2.25-1.425,1.837,1.837,0,0,1,1.825,1.25,4.682,4.682,0,0,1,.3,2.15v3.4a7.8,7.8,0,0,1-.2,2.65c-.2.4-.6.425-1.275.475-.15,0-.2.05-.2.3,0,.225.025.275.2.275.95-.025,1.975-.075,2.85-.075.85,0,1.8.05,2.725.075.175,0,.2-.05.2-.275s-.05-.275-.2-.3c-.725-.075-1.125-.1-1.3-.475a8.253,8.253,0,0,1-.2-2.65V-5.975c0-.6.025-1.85.025-2.775a3.506,3.506,0,0,0-3.65-3.575,4.462,4.462,0,0,0-3.875,2.375c0-.65,0-1.425.05-2.125,0-.1-.15-.2-.3-.2a33.8,33.8,0,0,1-3.95,1.1c-.275.05-.325.1-.3.375s.1.3.35.275Z" transform="translate(-1.15 19.875)" fill="#df8686"/>
</svg>
